<svg aria-label="bell-off" role="img" viewBox="0 0 24 24" xmlns="http://www.w3.org/2000/svg"><g clip-path="url(#clip0)" fill-rule="evenodd" clip-rule="evenodd"><path d="M12.045 2.997a6 6 0 00-2.994.774 1 1 0 11-.982-1.742A8 8 0 0120 9v4a1 1 0 11-2 0V9a6.003 6.003 0 00-5.955-6.003zM5.626 4.792a1 1 0 01.861.28l11.22 11.22A1 1 0 0117 18H2a1 1 0 110-2 2 2 0 002-2V9m1.464 7h9.122L6.168 7.582A6 6 0 006 8.999V14a4 4 0 01-.536 2zm4.304 4.135a1 1 0 011.367.363 1 1 0 001.73 0 1 1 0 011.73 1.004 2.999 2.999 0 01-5.19 0 1 1 0 01.363-1.367z"/><path d="M.293.293a1 1 0 011.414 0l22 22a1 1 0 01-1.414 1.414l-22-22a1 1 0 010-1.414z"/></g><defs><clipPath id="clip0"><path d="M0 0h24v24H0V0z"/></clipPath></defs></svg>