<svg aria-label="box" role="img" viewBox="0 0 24 24" xmlns="http://www.w3.org/2000/svg"><path fill-rule="evenodd" clip-rule="evenodd" d="M11.556 2.345h-.001L4.241 6.004 12 9.882l7.759-3.88-7.314-3.656a1 1 0 00-.89 0zM3 16.767V7.618l8 4v9.774l-7.45-3.725a1 1 0 01-.55-.9zm10 4.62l7.443-3.721.002-.002A1 1 0 0021 16.77V7.619l-8 4v9.769zM12.89 1.45l.445-.896a3 3 0 00-2.67 0l-.002.002-7.998 3.998-.001.001A3 3 0 001 7.24v9.518a3 3 0 001.65 2.696l.003.002 8 4a3 3 0 002.684 0l7.998-4h.001A3 3 0 0023 16.771V7.24a3.002 3.002 0 00-1.664-2.685h-.001l-7.998-4-.447.895z"/></svg>