<svg aria-label="cloud-snow" role="img" viewBox="0 0 24 24" xmlns="http://www.w3.org/2000/svg"><g clip-path="url(#clip0)"><path fill-rule="evenodd" clip-rule="evenodd" d="M8.082 1.047A9 9 0 0117.48 7h.522a6 6 0 012.4 11.496 1 1 0 11-.802-1.832A4 4 0 0017.999 9H16.74a1 1 0 01-.968-.75 7 7 0 10-11.148 7.219 1 1 0 11-1.248 1.562A9 9 0 018.082 1.047z"/><path d="M8 17c-.5 0-1-.4-1-1s.4-1 1-1 1 .4 1 1-.4 1-1 1zM8 21c-.5 0-1-.4-1-1s.4-1 1-1 1 .4 1 1-.4 1-1 1zM12 19c-.5 0-1-.4-1-1s.4-1 1-1 1 .4 1 1-.4 1-1 1zM12 23c-.5 0-1-.4-1-1s.4-1 1-1 1 .4 1 1-.4 1-1 1zM16 17c-.5 0-1-.4-1-1s.4-1 1-1 1 .4 1 1-.4 1-1 1zM16 21c-.5 0-1-.4-1-1s.4-1 1-1 1 .4 1 1-.4 1-1 1z"/></g><defs><clipPath id="clip0"><path d="M0 0h24v24H0z"/></clipPath></defs></svg>