<svg aria-label="cloud-off" role="img" viewBox="0 0 24 24" xmlns="http://www.w3.org/2000/svg"><g clip-path="url(#clip0)" fill-rule="evenodd" clip-rule="evenodd"><path d="M5.875 4.516a1 1 0 01-.391 1.36A7 7 0 008.984 19h9.015c.463 0 .924-.082 1.36-.24a1 1 0 01.682 1.88 5.999 5.999 0 01-2.04.36H9.008A9 9 0 014.516 4.125a1 1 0 011.36.391z"/><path d="M.293.293a1 1 0 011.414 0l22 22a1 1 0 01-1.414 1.414l-22-22a1 1 0 010-1.414zM8.81 3.94a1 1 0 011.096-.893A9 9 0 0117.479 9h.522a6 6 0 015.326 8.75 1 1 0 01-1.778-.917A4 4 0 0018 11H16.74a1 1 0 01-.968-.75 7 7 0 00-6.069-5.214A1 1 0 018.81 3.94z"/></g><defs><clipPath id="clip0"><path d="M0 0h24v24H0z"/></clipPath></defs></svg>