<svg viewBox="0 0 24 24" fill="none" xmlns="http://www.w3.org/2000/svg"><g clip-path="url(#clip0)" fill-rule="evenodd" clip-rule="evenodd" fill="#000"><path d="M8.082.047A9 9 0 0117.48 6h.522a6 6 0 012.4 11.496 1 1 0 11-.802-1.832A4 4 0 0017.999 8H16.74a1 1 0 01-.968-.75 7 7 0 10-11.148 7.219 1 1 0 11-1.248 1.562A9 9 0 018.082.047z"/><path d="M13.555 10.168a1 1 0 01.277 1.387L10.868 16H15a1 1 0 01.832 1.555l-4 6a1 1 0 01-1.664-1.11L13.132 18H9a1 1 0 01-.832-1.555l4-6a1 1 0 011.387-.277z"/></g><defs><clipPath id="clip0"><path d="M0 0h24v24H0V0z" fill="#fff"/></clipPath></defs></svg>