<svg viewBox="0 0 24 24" fill="none" xmlns="http://www.w3.org/2000/svg"><path clip-rule="evenodd" d="M18.754 9.659c.777.06 1.489.303 2.134.73a4.706 4.706 0 011.54 1.672A4.56 4.56 0 0123 14.307a4.67 4.67 0 01-.616 2.358 4.62 4.62 0 01-1.672 1.706 4.433 4.433 0 01-2.31.629H6.5c-.997 0-1.918-.25-2.761-.752a5.519 5.519 0 01-2.002-2.044A5.587 5.587 0 011 13.386c0-.943.216-1.822.649-2.638A5.55 5.55 0 013.42 8.749a5.397 5.397 0 012.486-.932 6.993 6.993 0 012.486-2.762A6.564 6.564 0 0112 4c1.1 0 2.127.247 3.08.741a6.802 6.802 0 012.376 2.01 7.178 7.178 0 011.298 2.908z" stroke-width="2" stroke-linecap="round" stroke-linejoin="round"/></svg>