<svg aria-label="cloud-rain" role="img" viewBox="0 0 24 24" xmlns="http://www.w3.org/2000/svg"><g clip-path="url(#clip0)" fill-rule="evenodd" clip-rule="evenodd"><path d="M16 12a1 1 0 011 1v8a1 1 0 11-2 0v-8a1 1 0 011-1zM8 12a1 1 0 011 1v8a1 1 0 11-2 0v-8a1 1 0 011-1zM12 14a1 1 0 011 1v8a1 1 0 11-2 0v-8a1 1 0 011-1z"/><path d="M8.082.047A9 9 0 0117.48 6h.522a6 6 0 012.4 11.496 1 1 0 11-.802-1.832A4 4 0 0017.999 8H16.74a1 1 0 01-.968-.75 7 7 0 10-11.148 7.219 1 1 0 11-1.248 1.562A9 9 0 018.082.047z"/></g><defs><clipPath id="clip0"><path d="M0 0h24v24H0z"/></clipPath></defs></svg>