<svg viewBox="0 0 24 24" xmlns="http://www.w3.org/2000/svg"><path fill-rule="evenodd" clip-rule="evenodd" d="M12 5c-1.114 0-2.13.297-3.068.897a5.994 5.994 0 00-2.135 2.374 1 1 0 01-.777.54 4.398 4.398 0 00-2.032.761 4.55 4.55 0 00-1.456 1.644A4.546 4.546 0 002 13.386c0 .85.203 1.617.605 2.323a4.519 4.519 0 001.645 1.68c.686.407 1.43.611 2.25.611h11.902c.66 0 1.252-.163 1.798-.488.555-.33.99-.773 1.316-1.343A3.67 3.67 0 0022 14.307a3.56 3.56 0 00-.447-1.761 3.707 3.707 0 00-1.216-1.323 3.424 3.424 0 00-1.66-.567 1 1 0 01-.903-.797 6.179 6.179 0 00-1.118-2.508 5.803 5.803 0 00-2.03-1.72l-.006-.002A5.597 5.597 0 0012 5zm-4.147-.787A7.564 7.564 0 0112 3c1.255 0 2.439.283 3.537.852a7.803 7.803 0 012.72 2.299 8.119 8.119 0 011.306 2.615 5.405 5.405 0 011.877.788 5.707 5.707 0 011.863 2.023 5.56 5.56 0 01.697 2.73c0 1.022-.248 1.98-.748 2.854a5.618 5.618 0 01-2.028 2.07c-.862.513-1.81.769-2.822.769H6.5a6.304 6.304 0 01-3.272-.893A6.519 6.519 0 01.868 16.7 6.587 6.587 0 010 13.386c0-1.103.255-2.143.766-3.107a6.55 6.55 0 012.086-2.353 6.376 6.376 0 012.414-1.02c.645-1.099 1.509-2 2.585-2.692l.002-.001z"/></svg>