<svg aria-label="codepen" role="img" viewBox="0 0 24 24" xmlns="http://www.w3.org/2000/svg"><g fill-rule="evenodd" clip-rule="evenodd"><path d="M11.455 1.162a1 1 0 011.09 0l10 6.5A1 1 0 0123 8.5v7a1 1 0 01-.455.838l-10 6.5a1 1 0 01-1.09 0l-10-6.5A1 1 0 011 15.5v-7a1 1 0 01.455-.838l10-6.5zM3 9.042v5.915l9 5.85 9-5.85V9.043l-9-5.85-9 5.85z"/><path d="M12 14.5a1 1 0 011 1V22a1 1 0 11-2 0v-6.5a1 1 0 011-1z"/><path d="M1.18 7.927a1 1 0 011.393-.246L12 14.279l9.427-6.598a1 1 0 011.146 1.638l-10 7a1 1 0 01-1.146 0l-10-7a1 1 0 01-.246-1.392z"/><path d="M11.427 7.68a1 1 0 011.146 0l10 7a1 1 0 01-1.146 1.64L12 9.72l-9.427 6.6a1 1 0 01-1.146-1.64l10-7z"/><path d="M12 1a1 1 0 011 1v6.5a1 1 0 11-2 0V2a1 1 0 011-1z"/></g></svg>