<svg viewBox="0 0 24 24" fill="none" xmlns="http://www.w3.org/2000/svg"><path d="M12.764 0c.745 0 1.36.602 1.376 1.355l.001.065c.015.748.585 1.586 1.273 1.87l.33.138c.688.285 1.68.098 2.223-.423l.047-.045a1.386 1.386 0 011.931.014l1.08 1.081c.527.527.536 1.388.015 1.931l-.045.047c-.519.54-.708 1.535-.42 2.231l.13.314c.287.692 1.122 1.266 1.874 1.28l.065.002A1.387 1.387 0 0124 11.236v1.528c0 .745-.602 1.36-1.355 1.376l-.065.001c-.748.015-1.586.585-1.87 1.273l-.138.33c-.285.688-.098 1.68.423 2.223l.045.047c.519.54.511 1.406-.014 1.931l-1.081 1.08a1.382 1.382 0 01-1.931.015l-.047-.045c-.54-.519-1.535-.708-2.231-.42l-.314.13c-.692.287-1.266 1.122-1.28 1.874l-.002.065A1.387 1.387 0 0112.764 24h-1.528c-.745 0-1.36-.602-1.376-1.355l-.001-.065c-.015-.748-.585-1.586-1.273-1.87l-.33-.138c-.688-.285-1.68-.098-2.223.423l-.047.045c-.54.519-1.406.511-1.931-.014l-1.08-1.081a1.382 1.382 0 01-.015-1.931l.045-.047c.519-.54.708-1.535.42-2.231l-.13-.314c-.287-.692-1.121-1.266-1.874-1.28l-.065-.002A1.386 1.386 0 010 12.764v-1.528c0-.745.602-1.36 1.355-1.376l.065-.001c.748-.015 1.586-.585 1.87-1.273l.138-.33c.285-.688.098-1.68-.423-2.223l-.045-.047a1.386 1.386 0 01.014-1.931l1.081-1.08a1.382 1.382 0 011.931-.015l.047.045c.54.519 1.535.708 2.231.42l.314-.13c.692-.287 1.266-1.121 1.28-1.874l.002-.065A1.386 1.386 0 0111.236 0h1.528zM12 7a5 5 0 100 10 5 5 0 000-10z" fill="#000"/></svg>