<svg viewBox="0 0 24 24" xmlns="http://www.w3.org/2000/svg"><g clip-path="url(#clip0)"><path d="M4.16 22.662a.808.808 0 01-1.118.129l-.703-.55a.806.806 0 01-.145-1.117l.022-.03c.262-.35.301-.939.085-1.322l-.098-.172c-.215-.38-.74-.653-1.176-.608l-.038.004a.809.809 0 01-.882-.7l-.11-.885a.806.806 0 01.687-.893l.038-.006c.432-.061.877-.45.993-.87l.056-.2c.116-.419-.063-.98-.403-1.258l-.03-.023a.808.808 0 01-.129-1.12l.55-.702a.806.806 0 011.117-.145l.03.022c.35.262.939.301 1.322.085l.172-.098c.38-.215.653-.74.608-1.176l-.004-.038a.809.809 0 01.7-.882l.885-.11a.806.806 0 01.893.687l.006.038c.061.432.45.877.87.993l.2.056c.419.116.98-.063 1.258-.403l.023-.03a.808.808 0 011.12-.128l.702.548c.342.268.409.766.145 1.118l-.022.03c-.262.35-.301.939-.085 1.321l.098.173c.215.38.74.653 1.176.608l.038-.004c.434-.044.83.27.882.7l.11.885a.806.806 0 01-.687.893l-.038.006c-.432.061-.877.45-.993.87l-.056.2c-.116.419.063.98.403 1.258l.03.024a.808.808 0 01.128 1.118l-.548.703a.807.807 0 01-1.118.145l-.03-.022c-.35-.262-.939-.301-1.322-.085l-.172.098c-.38.215-.653.74-.608 1.176l.004.038a.809.809 0 01-.7.882l-.885.11a.806.806 0 01-.893-.687l-.006-.038c-.061-.432-.45-.877-.87-.993l-.2-.055c-.419-.117-.98.062-1.258.402l-.024.03zm3.206-2.684a3 3 0 10-.732-5.956 3 3 0 00.732 5.956zm7.61-6.976a.808.808 0 01-1.09.283l-.772-.446a.806.806 0 01-.3-1.086l.019-.033c.21-.382.167-.972-.1-1.32l-.121-.158c-.266-.346-.823-.543-1.25-.438l-.037.009a.809.809 0 01-.97-.57l-.232-.862a.806.806 0 01.556-.98l.036-.01c.42-.122.806-.569.862-1l.027-.206c.057-.431-.197-.962-.573-1.19l-.033-.019a.808.808 0 01-.283-1.09l.446-.772a.806.806 0 011.086-.3l.033.019c.382.21.972.167 1.32-.1l.158-.121c.346-.266.544-.823.438-1.25l-.009-.037a.809.809 0 01.57-.97l.862-.232a.806.806 0 01.98.556l.01.036c.121.42.569.806 1 .862l.206.028c.431.056.962-.198 1.19-.574l.019-.033a.808.808 0 011.09-.283l.772.446a.806.806 0 01.3 1.086l-.019.033c-.21.382-.167.972.1 1.32l.121.158c.266.346.823.543 1.25.438l.037-.009a.809.809 0 01.97.57l.232.862a.806.806 0 01-.556.98l-.036.01c-.42.121-.806.569-.862 1l-.027.206c-.057.431.197.962.573 1.19l.033.019c.374.226.5.715.283 1.09l-.446.772a.806.806 0 01-1.086.3l-.033-.019c-.382-.21-.972-.167-1.32.1l-.157.121c-.347.266-.544.823-.44 1.25l.01.037a.809.809 0 01-.57.97l-.862.232a.806.806 0 01-.98-.556l-.01-.036c-.121-.42-.569-.806-1-.862l-.206-.027c-.431-.057-.962.197-1.19.573l-.019.033zm2.8-3.104a3 3 0 10-1.553-5.796 3 3 0 001.553 5.796z"/></g><defs><clipPath id="clip0"><path d="M0 0h24v24H0V0z"/></clipPath></defs></svg>