<svg viewBox="0 0 24 24" xmlns="http://www.w3.org/2000/svg"><g fill-rule="evenodd" clip-rule="evenodd" ><path d="M6 5a1 1 0 00-1 1v12a1 1 0 001 1h12a1 1 0 001-1V6a1 1 0 00-1-1H6zM3 6a3 3 0 013-3h12a3 3 0 013 3v12a3 3 0 01-3 3H6a3 3 0 01-3-3V6z"/><path d="M8 9a1 1 0 011-1h6a1 1 0 011 1v6a1 1 0 01-1 1H9a1 1 0 01-1-1V9zm2 1v4h4v-4h-4zM9 0a1 1 0 011 1v3a1 1 0 01-2 0V1a1 1 0 011-1zM15 0a1 1 0 011 1v3a1 1 0 11-2 0V1a1 1 0 011-1zM9 19a1 1 0 011 1v3a1 1 0 11-2 0v-3a1 1 0 011-1zM15 19a1 1 0 011 1v3a1 1 0 11-2 0v-3a1 1 0 011-1zM19 9a1 1 0 011-1h3a1 1 0 110 2h-3a1 1 0 01-1-1zM19 14a1 1 0 011-1h3a1 1 0 110 2h-3a1 1 0 01-1-1zM0 9a1 1 0 011-1h3a1 1 0 010 2H1a1 1 0 01-1-1zM0 14a1 1 0 011-1h3a1 1 0 110 2H1a1 1 0 01-1-1z"/></g></svg>