<svg viewBox="0 0 24 24" xmlns="http://www.w3.org/2000/svg"><g fill-rule="evenodd" clip-rule="evenodd"><path d="M4 5l.003.015a.296.296 0 00.032.066c.043.07.13.174.291.301.33.26.87.539 1.626.79C7.454 6.674 9.592 7 12 7s4.546-.327 6.048-.827c.756-.252 1.296-.53 1.626-.79.162-.128.248-.232.29-.302a.293.293 0 00.033-.066L20 5l-.003-.015a.293.293 0 00-.032-.066 1.235 1.235 0 00-.291-.301c-.33-.26-.87-.539-1.626-.79C16.546 3.326 14.408 3 12 3s-4.546.327-6.048.827c-.756.252-1.296.53-1.626.79a1.236 1.236 0 00-.29.302.296.296 0 00-.033.066L4 5zm1.32-3.07C7.075 1.345 9.437 1 12 1c2.563 0 4.925.345 6.68.93.873.29 1.651.66 2.232 1.117C21.482 3.496 22 4.148 22 5c0 .852-.519 1.504-1.088 1.953-.581.458-1.36.826-2.232 1.117-1.755.585-4.117.93-6.68.93-2.563 0-4.925-.345-6.68-.93-.873-.29-1.651-.66-2.232-1.117C2.518 6.504 2 5.852 2 5c0-.852.519-1.504 1.088-1.953.581-.458 1.36-.826 2.232-1.117zM3 11a1 1 0 011 1c0 .002 0 .007.003.018a.298.298 0 00.033.067c.042.07.127.173.288.3.328.26.864.537 1.618.789 1.497.5 3.635.826 6.058.826s4.561-.326 6.058-.826c.754-.252 1.29-.53 1.618-.789.16-.127.246-.23.288-.3a.298.298 0 00.033-.067A.061.061 0 0020 12a1 1 0 112 0c0 .85-.513 1.502-1.082 1.953-.579.459-1.355.827-2.226 1.118-1.753.585-4.115.929-6.692.929s-4.939-.344-6.692-.929c-.87-.29-1.647-.66-2.226-1.118C2.513 13.502 2 12.849 2 12a1 1 0 011-1z"/><path d="M3 4a1 1 0 011 1v14c0 .002 0 .007.003.018a.298.298 0 00.033.067c.042.07.127.173.288.3.328.26.864.537 1.618.789 1.497.5 3.635.826 6.058.826s4.561-.326 6.058-.826c.754-.252 1.29-.53 1.618-.789.16-.127.246-.23.288-.3a.298.298 0 00.033-.067A.061.061 0 0020 19V5a1 1 0 112 0v14c0 .85-.513 1.502-1.082 1.953-.579.459-1.355.827-2.226 1.118-1.753.585-4.115.929-6.692.929s-4.939-.344-6.692-.929c-.87-.29-1.647-.66-2.226-1.118C2.513 20.502 2 19.849 2 19V5a1 1 0 011-1z"/></g></svg>