<svg viewBox="0 0 24 24" xmlns="http://www.w3.org/2000/svg"><g clip-path="url(#clip0)" fill-rule="evenodd" clip-rule="evenodd" ><path d="M7.247 3.341A1 1 0 018 3h13a3 3 0 013 3v12a3 3 0 01-3 3H8a1 1 0 01-.753-.341l-7-8a1 1 0 010-1.318l7-8zM8.454 5l-6.125 7 6.125 7H21a1 1 0 001-1V6a1 1 0 00-1-1H8.454z"/><path d="M18.707 8.293a1 1 0 010 1.414l-6 6a1 1 0 01-1.414-1.414l6-6a1 1 0 011.414 0z"/><path d="M11.293 8.293a1 1 0 011.414 0l6 6a1 1 0 01-1.414 1.414l-6-6a1 1 0 010-1.414z"/></g><defs><clipPath id="clip0"><path d="M0 0h24v24H0V0z" /></clipPath></defs></svg>