<svg aria-label="download-cloud" role="img" viewBox="0 0 24 24" xmlns="http://www.w3.org/2000/svg"><g clip-path="url(#clip0)" fill-rule="evenodd" clip-rule="evenodd"><path d="M7.293 16.293a1 1 0 011.414 0L12 19.586l3.293-3.293a1 1 0 011.414 1.414l-4 4a1 1 0 01-1.414 0l-4-4a1 1 0 010-1.414z"/><path d="M12 11a1 1 0 011 1v9a1 1 0 11-2 0v-9a1 1 0 011-1z"/><path d="M8.668 1.994A9 9 0 0117.48 8H18a6.002 6.002 0 015.689 7.919 6 6 0 01-2.234 2.989 1 1 0 11-1.15-1.636A4 4 0 0018 10H16.74a1 1 0 01-.969-.751A7 7 0 103.75 15.627a1 1 0 01-1.498 1.326A9 9 0 018.668 1.994z"/></g><defs><clipPath id="clip0"><path d="M0 0h24v24H0V0z"/></clipPath></defs></svg>