<svg aria-label="drag" role="img" viewBox="0 0 24 24" xmlns="http://www.w3.org/2000/svg"><g fill-rule="evenodd" clip-rule="evenodd"><path d="M5.667 12a2.145 2.145 0 114.29 0 2.145 2.145 0 01-4.29 0zM5.667 4.493a2.145 2.145 0 114.29 0 2.145 2.145 0 01-4.29 0zM5.667 19.507a2.145 2.145 0 114.29 0 2.145 2.145 0 01-4.29 0zM13.71 12A2.145 2.145 0 1118 12a2.145 2.145 0 01-4.29 0zM13.71 4.493a2.145 2.145 0 114.29 0 2.145 2.145 0 01-4.29 0zM13.71 19.507a2.145 2.145 0 114.29 0 2.145 2.145 0 01-4.29 0z"/></g></svg>