<svg aria-label="extension" role="img" viewBox="0 0 24 24" xmlns="http://www.w3.org/2000/svg"><g fill-rule="evenodd" clip-rule="evenodd"><path d="M2 5a3 3 0 013-3h14a3 3 0 013 3v14a3 3 0 01-3 3H5a3 3 0 01-3-3V5zm3-1a1 1 0 00-1 1v14a1 1 0 001 1h14a1 1 0 001-1V5a1 1 0 00-1-1H5z"/><path d="M2 14a3 3 0 013-3h5a3 3 0 013 3v5a3 3 0 01-3 3H5a3 3 0 01-3-3v-5zm3-1a1 1 0 00-1 1v5a1 1 0 001 1h5a1 1 0 001-1v-5a1 1 0 00-1-1H5zM2 8a1 1 0 011-1h.722a1 1 0 110 2H3a1 1 0 01-1-1zm3.611 0a1 1 0 011-1h1.445a1 1 0 010 2H6.61a1 1 0 01-1-1zm4.333 0a1 1 0 011-1h1.445a1 1 0 110 2h-1.445a1 1 0 01-1-1zm4.334 0a1 1 0 011-1H16a1 1 0 011 1v.722a1 1 0 01-1.97.247A1 1 0 0114.279 8zM16 10.611a1 1 0 011 1v1.445a1 1 0 01-2 0V11.61a1 1 0 011-1zm0 4.333a1 1 0 011 1v1.445a1 1 0 11-2 0v-1.445a1 1 0 011-1zm0 4.334a1 1 0 011 1V21a1 1 0 11-2 0v-.722a1 1 0 011-1z"/></g></svg>