<svg viewBox="0 0 24 24" xmlns="http://www.w3.org/2000/svg"><g clip-path="url(#clip0)" fill-rule="evenodd" clip-rule="evenodd" ><path d="M11.998 5a8.12 8.12 0 00-1.87.214 1 1 0 11-.456-1.948A10.12 10.12 0 0112.002 3L12 4V3h.001c3.9 0 6.895 2.227 8.854 4.316a20.675 20.675 0 012.831 3.85 11.81 11.81 0 01.192.354l.011.022.003.007.002.002s0 .002-.894.449l-.882-.471c-.084.157-.171.314-.26.469a18.681 18.681 0 00-2.463-3.314C17.605 6.774 15.101 5 12 5h-.002zm9.86 6.998c-.517.9-1.114 1.753-1.783 2.548a1 1 0 001.53 1.288 19.5 19.5 0 002.277-3.363 1 1 0 00.012-.918L23 12l-.894.448v-.002l-.007-.012a6.407 6.407 0 00-.156-.287 13.486 13.486 0 00-.085-.15zM5.453 5.265a1 1 0 011.314.088l3.816 3.816.007.007 4.234 4.234.007.007 3.816 3.816a1 1 0 01-.1 1.502A11.07 11.07 0 0112.016 21H12c-3.9 0-6.896-2.226-8.855-4.316a20.67 20.67 0 01-2.831-3.85 12.375 12.375 0 01-.192-.354l-.011-.022-.003-.007-.002-.002s0-.002.894-.449l-.894.447a1 1 0 01.013-.92 19.45 19.45 0 015.334-6.262zm-3.31 6.738a18.68 18.68 0 002.462 3.313c1.789 1.909 4.29 3.68 7.387 3.684a9.07 9.07 0 004.38-1.214l-2.322-2.322a3.992 3.992 0 01-2.054.61 3.999 3.999 0 01-3.46-6.124L5.987 7.401a17.45 17.45 0 00-3.844 4.602zm7.885-.56a2 2 0 002.53 2.53l-2.53-2.53z"/><path d="M.293.293a1 1 0 011.414 0l22 22a1 1 0 01-1.414 1.414l-22-22a1 1 0 010-1.414z"/></g><defs><clipPath id="clip0"><path d="M0 0h24v24H0V0z" /></clipPath></defs></svg>