<svg viewBox="0 0 24 24" xmlns="http://www.w3.org/2000/svg"><g><path fill-rule="evenodd" clip-rule="evenodd" d="M4 14a1 1 0 011 1v7a1 1 0 11-2 0v-7a1 1 0 011-1z"/><path d="M16 17c-1.7 0-3.1-.5-4.4-1.1-1.2-.4-2.3-.9-3.6-.9-2.4 0-3.3.7-3.3.7-.3.3-.7.4-1.1.2-.4-.2-.6-.5-.6-.9V3c0-.3.1-.5.3-.7C3.5 2.1 4.8 1 8 1c1.7 0 3.1.5 4.4 1.1 1.2.4 2.3.9 3.6.9 2.4 0 3.3-.7 3.3-.7.3-.3.7-.4 1.1-.2.4.2.6.5.6.9v12c0 .3-.1.5-.3.7-.2.2-1.4 1.3-4.7 1.3zm-8-4c1.7 0 3.1.5 4.4 1.1 1.2.5 2.3.9 3.6.9 1.6 0 2.6-.3 3-.5V4.6c-.7.2-1.7.4-3 .4-1.7 0-3.1-.5-4.4-1.1C10.4 3.5 9.3 3 8 3c-1.6 0-2.6.3-3 .5v9.9c.7-.2 1.7-.4 3-.4z"/></g></svg>