<svg viewBox="0 0 24 24" fill="none" xmlns="http://www.w3.org/2000/svg"><g fill-rule="evenodd" clip-rule="evenodd" fill="#000"><path d="M2 5a3 3 0 013-3h14a3 3 0 013 3v14a3 3 0 01-3 3H5a3 3 0 01-3-3V5zm3-1a1 1 0 00-1 1v14a1 1 0 001 1h14a1 1 0 001-1V5a1 1 0 00-1-1H5z"/><path d="M7.014 10.816c1.47-2.805 1.619-6.115 1.51-7.37l1.992-.173c.131 1.506-.031 5.228-1.73 8.471-.658 1.255-.78 2.956-.598 4.683.18 1.705.642 3.29 1.002 4.207l-1.86.732c-.42-1.064-.93-2.826-1.131-4.73-.199-1.881-.111-4.051.815-5.82zM13.134 10.816c1.47-2.805 1.619-6.115 1.51-7.37l1.992-.173c.131 1.506-.031 5.228-1.73 8.471-.658 1.255-.78 2.956-.598 4.683.18 1.705.642 3.29 1.002 4.207l-1.86.732c-.42-1.064-.93-2.826-1.131-4.73-.199-1.881-.112-4.051.815-5.82z"/><path d="M10.816 16.558c-2.805-1.47-6.115-1.62-7.37-1.51l-.173-1.993c1.506-.13 5.228.032 8.471 1.73 1.255.658 2.956.781 4.683.599 1.705-.18 3.29-.642 4.207-1.003l.732 1.861c-1.064.42-2.826.93-4.73 1.13-1.881.2-4.051.112-5.82-.814zM10.816 10.437c-2.805-1.469-6.115-1.618-7.37-1.51l-.173-1.992c1.506-.13 5.228.032 8.471 1.73 1.255.658 2.956.78 4.683.599 1.705-.18 3.29-.642 4.207-1.003l.732 1.861c-1.064.42-2.826.93-4.73 1.13-1.881.2-4.051.112-5.82-.815z"/></g></svg>