<svg aria-label="frown" role="img" viewBox="0 0 24 24" xmlns="http://www.w3.org/2000/svg"><g fill-rule="evenodd" clip-rule="evenodd"><path d="M12 3a9 9 0 100 18 9 9 0 000-18zM1 12C1 5.925 5.925 1 12 1s11 4.925 11 11-4.925 11-11 11S1 18.075 1 12z"/><path d="M8 9a1 1 0 011-1h.01a1 1 0 010 2H9a1 1 0 01-1-1zM14 9a1 1 0 011-1h.01a1 1 0 110 2H15a1 1 0 01-1-1zM11.48 15.071c-1.154.212-2.168.958-2.733 1.593a1 1 0 01-1.494-1.328c.769-.865 2.155-1.919 3.867-2.232 1.797-.33 3.809.186 5.627 2.232a1 1 0 01-1.494 1.328c-1.382-1.554-2.703-1.789-3.773-1.593z"/></g></svg>