<svg viewBox="0 0 24 24" xmlns="http://www.w3.org/2000/svg"><g fill-rule="evenodd" clip-rule="evenodd"><path d="M4 11a1 1 0 011 1v9h14v-9a1 1 0 112 0v10a1 1 0 01-1 1H4a1 1 0 01-1-1V12a1 1 0 011-1z"/><path d="M1 7a1 1 0 011-1h20a1 1 0 011 1v5a1 1 0 01-1 1H2a1 1 0 01-1-1V7zm2 1v3h18V8H3z"/><path d="M12 6a1 1 0 011 1v15a1 1 0 11-2 0V7a1 1 0 011-1z"/><path d="M7.5 3a1.5 1.5 0 000 3h3.154a8.208 8.208 0 00-.468-1.018C9.557 3.838 8.694 3 7.5 3zM12 7l.98-.197V6.8l-.001-.005-.004-.016a4.226 4.226 0 00-.055-.236 10.696 10.696 0 00-.982-2.525C11.194 2.662 9.807 1 7.5 1a3.5 3.5 0 100 7H12a1 1 0 00.98-1.196L12 7z"/><path d="M12.061 4.018C12.807 2.662 14.194 1 16.5 1a3.5 3.5 0 110 7H12a1 1 0 01-.98-1.196L12 7l-.98-.197V6.8l.001-.005.004-.016a4.226 4.226 0 01.055-.236 10.689 10.689 0 01.982-2.525zM13.346 6H16.5a1.5 1.5 0 000-3c-1.194 0-2.057.838-2.686 1.982A8.194 8.194 0 0013.346 6zm-.366 1.198z"/></g></svg>