<svg aria-label="github" role="img" viewBox="0 0 24 24" xmlns="http://www.w3.org/2000/svg"><g clip-path="url(#clip0)"><path d="M16 23c-.6 0-1-.4-1-1v-3.9c0-.4 0-.7-.1-1.1-.1-.3-.3-.6-.5-.8-.3-.3-.4-.7-.2-1 .2-.3.5-.6.8-.7 2.9-.3 5.6-1.3 5.6-6 0-1.1-.4-2.2-1.2-3.1-.3-.3-.3-.7-.2-1 .3-.8.3-1.6.1-2.4-.5.1-1.3.4-2.6 1.3-.2.2-.5.2-.8.1-2.1-.6-4.4-.6-6.5 0-.4.1-.7.1-1-.1-1.2-.8-2.1-1.1-2.6-1.2-.2.7-.2 1.6.1 2.3.1.4.1.8-.2 1-.8.9-1.2 2-1.2 3.2 0 4.7 2.7 5.7 5.6 6 .4 0 .7.3.8.7.1.4 0 .8-.2 1-.2.2-.4.5-.5.8-.2.3-.2.7-.2 1V22c0 .6-.4 1-1 1s-1-.4-1-1v-1.7c-3 .5-4.3-1.2-5.2-2.3-.4-.5-.7-.9-1.1-1-.5-.1-.9-.7-.7-1.2.1-.5.7-.9 1.2-.7 1 .3 1.6 1 2.2 1.7.8 1.1 1.5 1.9 3.6 1.5v-.1c0-.5 0-1.2.3-1.7v-.1c-2.8-.6-5.8-2.4-5.8-7.7 0-1.5.5-2.9 1.4-4-.4-1.4-.3-2.8.3-4.1.1-.3.3-.5.6-.6.4 0 1.7-.2 4.4 1.4 2.2-.5 4.5-.5 6.6 0 2.6-1.7 4-1.5 4.4-1.4.3.1.5.3.6.6.5 1.3.6 2.6.3 3.9.9 1.1 1.4 2.5 1.4 4 0 5.7-3.4 7.2-5.8 7.8v.1c.3.6.3 1.2.3 1.8V22c0 .6-.4 1-1 1z"/></g><defs><clipPath id="clip0"/></defs></svg>