<svg aria-label="gitlab" role="img" viewBox="0 0 24 24" xmlns="http://www.w3.org/2000/svg"><g clip-path="url(#clip0)"><path fill-rule="evenodd" clip-rule="evenodd" d="M4.557 2.482a.606.606 0 01-.004-.012l.004.012zm.55 1.69L7 9.98a1 1 0 00.951.69h8.1a1 1 0 00.951-.691l1.886-5.804L20.779 10l1.224 3.625L12 20.894l-9.964-7.242 3.071-9.48zm14.164-1.43l.003-.004-.003.004zM4.147 1.26a1.43 1.43 0 011.948.021c.17.165.297.37.368.596L8.676 8.67h6.647l2.216-6.819.018-.052a1.43 1.43 0 012.318-.518c.17.165.297.37.368.597l2.436 7.497 1.268 3.755a1.235 1.235 0 01.013.04 1.84 1.84 0 01-.74 2.042l-10.632 7.727a1 1 0 01-1.176 0l-10.65-7.74-.004-.003a1.84 1.84 0 01-.659-2.056L3.76 1.851a1.42 1.42 0 01.388-.591zm13.78 0l.002-.002L18.6 2l-.674-.738.001-.002z"/></g><defs><clipPath id="clip0"><path d="M0 0h24v24H0V0z"/></clipPath></defs></svg>