<svg viewBox="0 0 24 24" xmlns="http://www.w3.org/2000/svg"><path d="M12.5 22.2c-.3 0-.5-.1-.7-.3L3 13.1c-1.3-1.2-2-2.9-2-4.6 0-1.7.7-3.4 1.9-4.6C4.1 2.7 5.8 2 7.5 2c1.7 0 3.4.7 4.6 1.9l.4.4.4-.4c.6-.6 1.3-1.1 2.1-1.4 1.6-.7 3.4-.7 5 0 .8.3 1.5.8 2.1 1.4.6.6 1.1 1.3 1.4 2.1.3.8.5 1.6.5 2.5 0 .9-.3 1.7-.6 2.5s-.8 1.5-1.4 2.1l-8.8 8.8c-.2.2-.5.3-.7.3zM7.5 4c-1.2 0-2.3.5-3.2 1.3-.9.8-1.3 2-1.3 3.2 0 1.2.5 2.3 1.3 3.2l8.1 8.1 8.1-8.1c.4-.4.7-.9 1-1.5.2-.5.3-1.1.3-1.7 0-.6-.1-1.2-.3-1.7-.2-.5-.6-1-1-1.5-.4-.4-.9-.7-1.5-1-1.1-.5-2.3-.5-3.4 0-.5.2-1 .6-1.5 1L13 6.4c-.4.4-1 .4-1.4 0l-.9-1.1C9.8 4.5 8.7 4 7.5 4z" /></svg>