<svg aria-label="inbox" role="img" viewBox="0 0 24 24" xmlns="http://www.w3.org/2000/svg"><g fill-rule="evenodd" clip-rule="evenodd"><path d="M1 12a1 1 0 011-1h6a1 1 0 01.832.445L10.535 14h2.93l1.703-2.555A1 1 0 0116 11h6a1 1 0 110 2h-5.465l-1.703 2.555A1 1 0 0114 16h-4a1 1 0 01-.832-.445L7.465 13H2a1 1 0 01-1-1z"/><path d="M7.24 3h9.52a3.002 3.002 0 012.685 1.665l3.45 6.887A1 1 0 0123 12v6a3 3 0 01-3 3H4a3 3 0 01-3-3v-6a1 1 0 01.106-.448l3.448-6.887.001-.001A3 3 0 017.24 3zM5.45 5.11l.894.448L3 12.236V18a1 1 0 001 1h16a1 1 0 001-1v-5.764l-3.344-6.678-.002-.003A1 1 0 0016.76 5H7.24a1 1 0 00-.894.555L5.45 5.11z"/></g></svg>