<svg aria-label="layers" role="img" viewBox="0 0 24 24" xmlns="http://www.w3.org/2000/svg"><g clip-path="url(#clip0)" fill-rule="evenodd" clip-rule="evenodd"><path d="M11 1L1 6l10 5 10-5-10-5z"/><path d="M10.553.106a1 1 0 01.894 0l10 5a1 1 0 010 1.788l-10 5a1 1 0 01-.894 0l-10-5a1 1 0 010-1.788l10-5zM3.236 6L11 9.882 18.764 6 11 2.118 3.236 6zM.106 15.553a1 1 0 011.341-.447L11 19.882l9.553-4.776a1 1 0 11.894 1.788l-10 5a1 1 0 01-.894 0l-10-5a1 1 0 01-.447-1.341z"/><path d="M.106 10.553a1 1 0 011.341-.447L11 14.882l9.553-4.776a1 1 0 11.894 1.788l-10 5a1 1 0 01-.894 0l-10-5a1 1 0 01-.447-1.341z"/></g><defs><clipPath id="clip0"/></defs></svg>