<svg viewBox="0 0 24 24" fill="none" xmlns="http://www.w3.org/2000/svg"><g ><path fill-rule="evenodd" clip-rule="evenodd" d="M6 4a2 2 0 11-4 0 2 2 0 014 0zm10 4a6 6 0 016 6v7h-4v-7a2 2 0 00-4 0v7h-4v-7a6 6 0 016-6zM6 21V9H2v12h4z"/><path d="M22 21v.5a.5.5 0 00.5-.5H22zm-4 0h-.5a.5.5 0 00.5.5V21zm-4 0v.5a.5.5 0 00.5-.5H14zm-4 0h-.5a.5.5 0 00.5.5V21zM6 9h.5a.5.5 0 00-.5-.5V9zm0 12v.5a.5.5 0 00.5-.5H6zM2 9v-.5a.5.5 0 00-.5.5H2zm0 12h-.5a.5.5 0 00.5.5V21zM4 6.5A2.5 2.5 0 006.5 4h-1A1.5 1.5 0 014 5.5v1zM1.5 4A2.5 2.5 0 004 6.5v-1A1.5 1.5 0 012.5 4h-1zM4 1.5A2.5 2.5 0 001.5 4h1A1.5 1.5 0 014 2.5v-1zM6.5 4A2.5 2.5 0 004 1.5v1A1.5 1.5 0 015.5 4h1zm14.096 5.404A6.5 6.5 0 0016 7.5v1a5.5 5.5 0 013.89 1.61l.706-.706zM22.5 14a6.5 6.5 0 00-1.904-4.596l-.707.707A5.5 5.5 0 0121.5 14h1zm0 7v-7h-1v7h1zm-4.5.5h4v-1h-4v1zm-.5-7.5v7h1v-7h-1zm-.44-1.06A1.5 1.5 0 0117.5 14h1a2.5 2.5 0 00-.732-1.768l-.707.707zM16 12.5a1.5 1.5 0 011.06.44l.708-.708A2.5 2.5 0 0016 11.5v1zm-1.06.44A1.5 1.5 0 0116 12.5v-1a2.5 2.5 0 00-1.768.732l.707.707zM14.5 14c0-.398.158-.78.44-1.06l-.708-.708A2.5 2.5 0 0013.5 14h1zm0 7v-7h-1v7h1zm-4.5.5h4v-1h-4v1zM9.5 14v7h1v-7h-1zm1.904-4.596A6.5 6.5 0 009.5 14h1a5.5 5.5 0 011.61-3.89l-.706-.706zM16 7.5a6.5 6.5 0 00-4.596 1.904l.707.707A5.5 5.5 0 0116 8.5v-1zM5.5 9v12h1V9h-1zM2 9.5h4v-1H2v1zM2.5 21V9h-1v12h1zm3.5-.5H2v1h4v-1z"/></g></svg>