<svg aria-label="listing" role="img" viewBox="0 0 24 24" xmlns="http://www.w3.org/2000/svg"><path fill-rule="evenodd" clip-rule="evenodd" d="M5 0a3 3 0 00-3 3v17a3 3 0 003 3h14a3 3 0 003-3V3a3 3 0 00-3-3H5zM4 3a1 1 0 011-1h14a1 1 0 011 1v17a1 1 0 01-1 1H5a1 1 0 01-1-1V3zm3 1a1 1 0 00-1 1v3a1 1 0 001 1h2a1 1 0 001-1V5a1 1 0 00-1-1H7zM6 15a1 1 0 011-1h.77a1 1 0 011 1v3a1 1 0 01-1 1H7a1 1 0 01-1-1v-3zm5.615-1a1 1 0 00-1 1v3a1 1 0 001 1h.77a1 1 0 001-1v-3a1 1 0 00-1-1h-.77zm3.616 1a1 1 0 011-1H17a1 1 0 011 1v3a1 1 0 01-1 1h-.77a1 1 0 01-1-1v-3zM6.5 10.5a1 1 0 100 2H17a1 1 0 100-2H6.5zM12 5a1 1 0 011-1h4a1 1 0 110 2h-4a1 1 0 01-1-1zm1 2a1 1 0 100 2h4a1 1 0 100-2h-4z"/></svg>