<svg aria-label="manifold" role="img" viewBox="0 0 24 24" xmlns="http://www.w3.org/2000/svg"><g fill-rule="evenodd" clip-rule="evenodd"><path d="M12.415 5.64c.334.118 6.959 2.688 9.351 3.62l-.653 1.677a3935.733 3935.733 0 00-8.936-3.463l-.253-.096-.074-.028-.024-.008-.003-.001a4.642 4.642 0 01-.118-.044c-.145-.055-.325-.123-.578-.172-.319-.062-.64-.064-.915.043-.281.11-.547.346-.8.76-.253.418-.456.956-.629 1.562-.14.49-.25.985-.356 1.464l-.076.337c-.12.53-.26 1.13-.474 1.545l-1.6-.823c.087-.17.184-.524.319-1.119l.07-.31c.106-.482.23-1.04.386-1.588.191-.67.447-1.384.823-2.003.378-.621.914-1.204 1.686-1.503m2.854.15l-.022-.007.022.008zm-.022-.007l-.066-.026.066.026zm-.066-.026a6.404 6.404 0 00-.211-.076l.21.076zm-.211-.076a4.914 4.914 0 00-.646-.173l.646.173zm-.646-.173c-.502-.098-1.2-.143-1.909.132l1.909-.132z"/><path d="M19.61 9.295c.658-.268 1.495-.297 2.501.103l-.664 1.673c-.64-.255-.991-.177-1.156-.11a.735.735 0 00-.314.243l-.058.084c-.294.484-.57 1.25-.749 2.334v.002l-.069.428c-.142.835-.335 1.587-.6 2.216-.353.859-.86 1.573-1.558 1.949l-.01.005c-.319.166-.684.26-1.06.246-1.061-.033-1.939-.838-2.604-1.886l-.001-.001c-.412-.653-.667-.922-.849-1.018-.188-.1-.324-.098-.435-.065-.13.039-.31.147-.505.398-.4.512-.735 1.463-.735 2.734 0 .928.192 2 .447 2.994l-1.744.447c-.271-1.06-.503-2.298-.503-3.441 0-1.54.399-2.922 1.116-3.841.362-.465.835-.845 1.411-1.016.594-.177 1.215-.105 1.79.198l.001.001c.65.345 1.125 1.01 1.527 1.647.573.902 1 1.046 1.141 1.05h.012a.323.323 0 00.153-.04c.184-.102.471-.388.743-1.05l.003-.007c.193-.456.356-1.06.485-1.817l.068-.425c.206-1.246.549-2.283 1.026-3.04l.054-.086.018-.018c.154-.223.504-.64 1.119-.891z"/><path d="M2.466 9.579l10.382 4.219-.678 1.667L1.79 11.246l.677-1.667z"/><path d="M12 2.9a9.1 9.1 0 100 18.2 9.1 9.1 0 000-18.2zM1.1 12C1.1 5.98 5.98 1.1 12 1.1c6.02 0 10.9 4.88 10.9 10.9 0 6.02-4.88 10.9-10.9 10.9-6.02 0-10.9-4.88-10.9-10.9z"/></g></svg>