<svg viewBox="0 0 24 24" fill="none" xmlns="http://www.w3.org/2000/svg"><g stroke-width="1.8" stroke-miterlimit="10"><path d="M21.44 10.098a1961.3 1961.3 0 00-9.321-3.607c-.195-.068-1.248-.544-2.233-.162-2.105.815-2.207 4.924-2.81 6.095"/><path d="M21.78 10.234c-1.648-.653-2.378.213-2.556.476-.025.042-.042.06-.042.06-.39.619-.705 1.527-.9 2.707l-.068.425c-.136.798-.314 1.477-.543 2.02-.314.764-.713 1.265-1.155 1.502a1.221 1.221 0 01-.611.145c-.603-.017-1.256-.493-1.876-1.469-.408-.645-.773-1.112-1.189-1.333-1.528-.806-2.996 1.053-2.996 3.863 0 1.036.212 2.19.475 3.217M12.51 14.632l-10.383-4.22"/><path d="M12 22c5.523 0 10-4.477 10-10S17.523 2 12 2 2 6.477 2 12s4.477 10 10 10z"/></g></svg>