<svg aria-label="meter" role="img" viewBox="0 0 24 24" xmlns="http://www.w3.org/2000/svg"><g fill-rule="evenodd" clip-rule="evenodd"><path d="M15 13a3 3 0 11-1.707-2.708l2.5-2.5a1 1 0 111.414 1.415l-2.5 2.5c.188.391.293.83.293 1.293zm-2 0a1 1 0 11-2 0 1 1 0 012 0z"/><path d="M1 13C1 6.925 5.925 2 12 2s11 4.925 11 11c0 2.921-1.14 5.578-2.997 7.547-.687.728-1.7.904-2.558.644a18.813 18.813 0 00-10.89 0c-.859.26-1.87.084-2.558-.644A10.965 10.965 0 011 13zm11-9a9 9 0 00-9 9c0 2.39.93 4.562 2.452 6.174.098.104.29.174.525.102a20.812 20.812 0 0112.046 0c.236.072.428.002.525-.102A8.966 8.966 0 0021 13a9 9 0 00-9-9z"/></g></svg>