<svg viewBox="0 0 24 24" xmlns="http://www.w3.org/2000/svg"><g clip-path="url(#clip0)"><path d="M23 24c-.3 0-.5-.1-.7-.3l-22-22C-.1 1.3-.1.7.3.3c.4-.4 1-.4 1.4 0l22 22c.4.4.4 1 0 1.4-.2.2-.4.3-.7.3z" /><path d="M12 16c-.5 0-1-.1-1.5-.3-.7-.3-1.4-.8-1.8-1.5-.5-.6-.7-1.4-.7-2.2V9c0-.4.2-.8.6-.9.4-.2.8-.1 1.1.2l5.1 5.1c.2.2.3.4.3.7 0 .3-.1.5-.3.7-.6.6-1.3.9-2 1.1-.3.1-.5.1-.8.1zm-2-4.6v.6c0 .4.1.8.3 1.1.2.3.5.6.9.7.4.2.8.2 1.2.2h.1L10 11.4zm5-1.1c-.6 0-1-.4-1-1V4c0-.5-.2-1-.5-1.3-.3-.4-.8-.6-1.3-.6s-1 .1-1.4.4c-.4.3-.7.7-.8 1.2-.1.4-.6.8-1.1.7-.6-.1-.9-.7-.8-1.2.2-1 .7-1.8 1.5-2.4.8-.6 1.8-.9 2.8-.8 1 .1 1.9.6 2.6 1.3.6.8 1 1.7 1 2.7v5.3c0 .6-.4 1-1 1z" /><path d="M12 20.1c-1 0-2.1-.2-3-.6-1.5-.6-2.7-1.6-3.6-3C4.5 15.1 4 13.6 4 12v-2c0-.6.4-1 1-1s1 .4 1 1v2c0 1.2.3 2.4 1 3.4s1.6 1.8 2.7 2.2c1.1.5 2.3.6 3.5.3 1.2-.2 2.2-.8 3.1-1.7.4-.4 1-.4 1.4 0 .4.4.4 1 0 1.4-1.1 1.1-2.5 1.9-4.1 2.2-.5.2-1.1.3-1.6.3zm6.9-5.9h-.2c-.5-.1-.9-.6-.8-1.2.1-.3.1-.6.1-1v-2c0-.6.4-1 1-1s1 .4 1 1v2c0 .5 0 .9-.1 1.4-.1.5-.5.8-1 .8z" /><path d="M12 24c-.6 0-1-.4-1-1v-4c0-.6.4 0 1 0s1-.6 1 0v4c0 .6-.4 1-1 1z" /><path d="M16 24H8c-.6 0-1-.4-1-1s.4-1 1-1h8c.6 0 1 .4 1 1s-.4 1-1 1z" /></g><defs><clipPath id="clip0"><path d="M0 0h24v24H0z"/></clipPath></defs></svg>