<svg viewBox="0 0 24 24" xmlns="http://www.w3.org/2000/svg"><g fill-rule="evenodd" clip-rule="evenodd" ><path d="M5.707 8.293a1 1 0 010 1.414L3.414 12l2.293 2.293a1 1 0 11-1.414 1.414l-3-3a1 1 0 010-1.414l3-3a1 1 0 011.414 0zM11.293 1.293a1 1 0 011.414 0l3 3a1 1 0 01-1.414 1.414L12 3.414 9.707 5.707a1 1 0 01-1.414-1.414l3-3zM8.293 18.293a1 1 0 011.414 0L12 20.586l2.293-2.293a1 1 0 011.414 1.414l-3 3a1 1 0 01-1.414 0l-3-3a1 1 0 010-1.414zM18.293 8.293a1 1 0 011.414 0l3 3a1 1 0 010 1.414l-3 3a1 1 0 01-1.414-1.414L20.586 12l-2.293-2.293a1 1 0 010-1.414z"/><path d="M1 12a1 1 0 011-1h20a1 1 0 110 2H2a1 1 0 01-1-1z"/><path d="M12 1a1 1 0 011 1v20a1 1 0 11-2 0V2a1 1 0 011-1z"/></g></svg>