<svg aria-label="package" role="img" viewBox="0 0 24 24" xmlns="http://www.w3.org/2000/svg"><g fill-rule="evenodd" clip-rule="evenodd"><path d="M11.556 2.345h-.001l-7.998 4h-.002A1 1 0 003 7.24v9.527a1 1 0 00.55.9s-.001 0 0 0l7.997 3.999a1.001 1.001 0 00.896 0l8-4 .002-.002A1 1 0 0021 16.77V7.242a1 1 0 00-.555-.895l-.002-.002-7.998-3.998a1 1 0 00-.89 0zm1.334-.895l.445-.896a3 3 0 00-2.67 0l-.002.002-7.998 3.998-.001.001A3 3 0 001 7.24v9.518a3 3 0 001.65 2.696l.003.001 8 4a3 3 0 002.684 0l7.998-3.998.001-.001A3 3 0 0023 16.771V7.24a3.002 3.002 0 00-1.664-2.685h-.001l-7.998-4-.447.895z"/><path d="M1.426 5.713a1 1 0 011.341-.447L12 9.882l9.233-4.616a1 1 0 11.894 1.788l-9.68 4.84a1 1 0 01-.894 0l-9.68-4.84a1 1 0 01-.447-1.341z"/><path d="M12 10a1 1 0 011 1v11.76a1 1 0 11-2 0V11a1 1 0 011-1zM6.106 3.053a1 1 0 011.341-.447l10 5a1 1 0 11-.894 1.788l-10-5a1 1 0 01-.447-1.341z"/></g></svg>