<svg viewBox="0 0 24 24" xmlns="http://www.w3.org/2000/svg"><g fill-rule="evenodd" clip-rule="evenodd"><path d="M18.293 11.293a1 1 0 011.414 0l3 3a1 1 0 010 1.414l-7 7a1 1 0 01-1.414 0l-3-3a1 1 0 010-1.414l7-7zM13.414 19L15 20.586 20.586 15 19 13.414 13.414 19z"/><path d="M1.293 1.293a1 1 0 01.942-.265l14.5 3.5a1 1 0 01.746.776l1.5 7.5a1 1 0 01-.274.903l-5 5a1 1 0 01-.903.274l-7.5-1.5a1 1 0 01-.776-.746l-3.5-14.5a1 1 0 01.265-.942zm2.063 2.063l2.966 12.289 6.35 1.27 4.242-4.244-1.27-6.349L3.357 3.356z"/><path d="M8.879 10.293L1.293 2.707l1.414-1.414 7.586 7.586-1.414 1.414z"/><path d="M11 10a1 1 0 100 2 1 1 0 000-2zm-3 1a3 3 0 116 0 3 3 0 01-6 0z"/></g></svg>