<svg viewBox="0 0 24 24" xmlns="http://www.w3.org/2000/svg"><path d="M20 22.9h-.3c-3.2-.4-6.4-1.5-9.1-3.2-1.3-.8-2.4-1.7-3.5-2.8-.4-.4-.4-1 0-1.4l2.8-2.8c.2-.2.4-.3.7-.3.3 0 .5.1.7.3.8.8 1.6 1.5 2.5 2l.7-.7c.4-.4.9-.7 1.5-.8.6-.1 1.1-.1 1.7.1.8.3 1.7.5 2.6.6.7.1 1.4.5 1.9 1 .5.6.7 1.3.7 2v3c0 .4-.1.8-.3 1.2-.2.4-.4.7-.7 1-.3.3-.7.5-1.1.6-.2.1-.5.2-.8.2zM9.3 16.1c.8.7 1.6 1.3 2.4 1.8 2.5 1.6 5.3 2.6 8.2 2.9.1 0 .3 0 .4-.1.1 0 .3-.1.4-.2.1-.1.2-.2.2-.3 0-.1.1-.2.1-.3v-3c0-.3-.1-.5-.2-.7-.2-.2-.4-.3-.6-.3-1-.1-2-.4-3-.8-.2-.1-.4-.1-.6 0-.2 0-.4.1-.5.3l-1.3 1.3c-.3.3-.8.4-1.2.2-1-.6-2-1.3-2.9-2.1l-1.4 1.3zm-4.1-2.3c-.3 0-.6-.2-.8-.5-1.8-2.7-2.9-5.8-3.2-9.1 0-.4 0-.9.1-1.2.1-.4.3-.7.6-1 .3-.3.6-.6 1-.7.4-.2.8-.3 1.2-.3h3c.7 0 1.4.3 2 .7.6.5.9 1.1 1 1.9.1.9.3 1.8.6 2.6.2.5.2 1.1.1 1.7-.1.6-.4 1.1-.8 1.5l-1.3 1.3c-.4.4-1 .4-1.4 0-.4-.4-.4-1 0-1.4L8.6 8c.1-.1.2-.3.3-.5v-.6c-.4-1-.6-2-.8-3 0-.2-.2-.5-.3-.6-.2-.2-.4-.3-.7-.3h-3c-.1 0-.3 0-.4.1-.1 0-.2.1-.3.2-.1.1-.2.2-.2.4 0 .1-.1.3 0 .4C3.4 7 4.4 9.8 6 12.3c.3.5.2 1.1-.3 1.4-.1.1-.3.1-.5.1z" /><path d="M1 24c-.3 0-.5-.1-.7-.3-.4-.4-.4-1 0-1.4l22-22c.4-.4 1-.4 1.4 0 .4.4.4 1 0 1.4l-22 22c-.2.2-.4.3-.7.3z" /></svg>