<svg viewBox="0 0 24 24" xmlns="http://www.w3.org/2000/svg"><g clip-path="url(#clip0)" ><path fill-rule="evenodd" clip-rule="evenodd" d="M16 1a1 1 0 011 1v5h5a1 1 0 110 2h-6a1 1 0 01-1-1V2a1 1 0 011-1z"/><path fill-rule="evenodd" clip-rule="evenodd" d="M23.707.293a1 1 0 010 1.414l-7 7a1 1 0 11-1.414-1.414l7-7a1 1 0 011.414 0z"/><path d="M19.9 22.9h-.3c-3.2-.4-6.4-1.5-9.1-3.2-2.5-1.6-4.7-3.8-6.3-6.3C2.5 10.7 1.4 7.5 1 4.3c0-.4 0-.9.2-1.3.1-.4.3-.7.6-1 .3-.3.6-.6 1-.7.4-.2.8-.3 1.2-.3h3c.7 0 1.4.2 2 .7.6.5.9 1.1 1 1.9.1.9.3 1.8.6 2.6.2.5.2 1.1.1 1.7-.1.5-.3 1-.7 1.4l-.8.8c1.2 1.8 2.7 3.4 4.6 4.6l.7-.7c.4-.4.9-.7 1.5-.8.6-.1 1.1-.1 1.7.1.8.3 1.7.5 2.6.6.7.1 1.4.5 1.9 1 .5.6.7 1.3.7 2v3c0 .4-.1.8-.3 1.2-.2.4-.4.7-.7 1-.3.3-.7.5-1.1.6-.3.2-.6.2-.9.2zM7 3H4c-.1 0-.3 0-.4.1-.1 0-.2.1-.3.2-.1.1-.2.2-.2.4-.1.1-.1.3-.1.4.3 2.9 1.3 5.7 2.9 8.2 1.5 2.3 3.4 4.3 5.7 5.7 2.5 1.6 5.3 2.6 8.2 2.9h.4c.1 0 .3-.1.4-.2.1-.1.2-.2.2-.3 0-.1.1-.3.1-.4v-3c0-.2-.1-.5-.2-.7-.2-.2-.4-.3-.6-.3-1-.1-2-.4-3-.8-.2-.1-.4-.1-.6 0-.2 0-.4.1-.5.3l-1.3 1.3c-.3.3-.8.4-1.2.2-2.7-1.5-4.9-3.7-6.4-6.4-.2-.6-.1-1.1.2-1.4l1.3-1.3c.1-.1.2-.3.3-.5v-.6c-.4-1-.6-2-.8-3 0-.2-.2-.5-.3-.6-.3-.1-.5-.2-.8-.2z"/></g><defs><clipPath id="clip0"><path d="M0 0h24v24H0V0z" /></clipPath></defs></svg>