<svg viewBox="0 0 24 24" fill="none" xmlns="http://www.w3.org/2000/svg"><g fill-rule="evenodd" clip-rule="evenodd" fill="#000"><path d="M9 17a3 3 0 116 0v3a3 3 0 11-6 0v-3zm3-1a1 1 0 00-1 1v3a1 1 0 102 0v-3a1 1 0 00-1-1zM12 9a1 1 0 100 2 1 1 0 000-2zm-3 1a3 3 0 116 0 3 3 0 01-6 0z"/><path d="M12 6a4 4 0 00-3.2 6.4A1 1 0 017.2 13.6a6 6 0 119.599 0 1 1 0 01-1.598-1.201A4 4 0 0012 6z"/><path d="M12 3a7 7 0 00-4.375 12.465 1 1 0 11-1.25 1.56 9 9 0 1111.251 0 1 1 0 11-1.251-1.56A7 7 0 0012 3z"/></g></svg>