<svg viewBox="0 0 24 24" xmlns="http://www.w3.org/2000/svg"><g fill-rule="evenodd" clip-rule="evenodd" ><path d="M12 11a1 1 0 100 2 1 1 0 000-2zm-3 1a3 3 0 116 0 3 3 0 01-6 0zM5.637 4.223a1 1 0 010 1.414 9 9 0 000 12.726 1 1 0 11-1.414 1.414 11 11 0 010-15.554 1 1 0 011.414 0zm12.726 0a1 1 0 011.414 0 11 11 0 010 15.554 1 1 0 11-1.414-1.414 9 9 0 000-12.726 1 1 0 010-1.414zm-9.896 2.82a1 1 0 010 1.414 5 5 0 000 7.075 1 1 0 11-1.414 1.416 7 7 0 010-9.906 1 1 0 011.414.001zm7.066.01a1 1 0 011.414 0 7 7 0 010 9.905 1 1 0 01-1.414-1.415 5 5 0 000-7.076 1 1 0 010-1.414z"/></g></svg>