<svg viewBox="0 0 24 24" xmlns="http://www.w3.org/2000/svg"><g clip-path="url(#clip0)" fill-rule="evenodd" clip-rule="evenodd"><path d="M23 3a1 1 0 011 1v6a1 1 0 01-1 1h-6a1 1 0 110-2h5V4a1 1 0 011-1zM0 14a1 1 0 011-1h6a1 1 0 110 2H2v5a1 1 0 11-2 0v-6z"/><path d="M14.217 4.317a8 8 0 00-9.764 5.017 1 1 0 11-1.886-.668 10 10 0 0116.489-3.744l4.629 4.35a1 1 0 01-1.37 1.457l-4.64-4.36a8 8 0 00-3.458-2.051zM.271 13.315a1 1 0 011.414-.044l4.64 4.36.022.022a8 8 0 0013.2-2.987 1 1 0 111.886.668 10 10 0 01-16.489 3.744l-4.629-4.35a1 1 0 01-.044-1.413z"/></g><defs><clipPath id="clip0"><path d="M0 0h24v24H0V0z"/></clipPath></defs></svg>