<svg viewBox="0 0 24 24" xmlns="http://www.w3.org/2000/svg"><g fill-rule="evenodd" clip-rule="evenodd"><path d="M6 4a2 2 0 100 4 2 2 0 000-4zM2 6a4 4 0 118 0 4 4 0 01-8 0zM6 16a2 2 0 100 4 2 2 0 000-4zm-4 2a4 4 0 118 0 4 4 0 01-8 0z"/><path d="M20.707 3.293a1 1 0 010 1.414l-11.88 11.88a1 1 0 01-1.414-1.414l11.88-11.88a1 1 0 011.414 0zM13.762 13.774a1 1 0 011.415-.002l5.53 5.52a1 1 0 01-1.413 1.416l-5.53-5.52a1 1 0 01-.002-1.415z"/><path d="M7.413 7.413a1 1 0 011.414 0l3.88 3.88a1 1 0 01-1.414 1.414l-3.88-3.88a1 1 0 010-1.414z"/></g></svg>