<svg viewBox="0 0 24 24" fill="none" xmlns="http://www.w3.org/2000/svg"><g fill-rule="evenodd" clip-rule="evenodd" fill="#000"><path d="M18 3a2 2 0 100 4 2 2 0 000-4zm-4 2a4 4 0 118 0 4 4 0 01-8 0zM6 10a2 2 0 100 4 2 2 0 000-4zm-4 2a4 4 0 118 0 4 4 0 01-8 0zM18 17a2 2 0 100 4 2 2 0 000-4zm-4 2a4 4 0 118 0 4 4 0 01-8 0z"/><path d="M7.726 13.007a1 1 0 011.367-.361l6.83 3.98a1 1 0 11-1.007 1.728l-6.83-3.98a1 1 0 01-.36-1.367zM16.274 6.006a1 1 0 01-.36 1.368l-6.82 3.98a1 1 0 01-1.008-1.728l6.82-3.98a1 1 0 011.368.36z"/></g></svg>