<svg aria-label="shield-off" role="img" viewBox="0 0 24 24" xmlns="http://www.w3.org/2000/svg"><g clip-path="url(#clip0)" fill-rule="evenodd" clip-rule="evenodd"><path d="M11.65 1.063a1 1 0 01.701 0l8 3A1 1 0 0121 5v7.007a7.896 7.896 0 01-.355 2.29 1 1 0 11-1.91-.593A5.897 5.897 0 0019 11.997V5.693l-7-2.625-2.81 1.049a1 1 0 01-.7-1.874l3.16-1.18zM5.668 4.383a1 1 0 01-.591 1.285L5 5.696V12c0 2.554 1.718 4.8 3.659 6.497a20.692 20.692 0 003.34 2.365 19.29 19.29 0 004.877-3.91 1 1 0 111.488 1.337 21.29 21.29 0 01-5.897 4.595 1 1 0 01-.914.01L12 22l-.447.894-.004-.001-.006-.004-.022-.01a8.28 8.28 0 01-.35-.188 22.697 22.697 0 01-3.83-2.689C5.281 18.2 3 15.447 3 12V5a1 1 0 01.653-.938l.73-.27a1 1 0 011.285.591z"/><path d="M.293.293a1 1 0 011.414 0l22 22a1 1 0 01-1.414 1.414l-22-22a1 1 0 010-1.414z"/></g><defs><clipPath id="clip0"/></defs></svg>