<svg viewBox="0 0 24 24" xmlns="http://www.w3.org/2000/svg"><g fill-rule="evenodd" clip-rule="evenodd"><path d="M15 3a1 1 0 011-1h5a1 1 0 011 1v5a1 1 0 11-2 0V4h-4a1 1 0 01-1-1z"/><path d="M21.707 2.293a1 1 0 010 1.414l-17 17a1 1 0 01-1.414-1.414l17-17a1 1 0 011.414 0zM21 15a1 1 0 011 1v5a1 1 0 01-1 1h-5a1 1 0 110-2h4v-4a1 1 0 011-1z"/><path d="M14.293 14.293a1 1 0 011.414 0l6 6a1 1 0 01-1.414 1.414l-6-6a1 1 0 010-1.414zM3.293 3.293a1 1 0 011.414 0l5 5a1 1 0 01-1.414 1.414l-5-5a1 1 0 010-1.414z"/></g></svg>