<svg aria-label="slack" role="img" viewBox="0 0 24 24" xmlns="http://www.w3.org/2000/svg"><g><path d="M14.5 10c-.83 0-1.5-.67-1.5-1.5v-5c0-.83.67-1.5 1.5-1.5s1.5.67 1.5 1.5v5c0 .83-.67 1.5-1.5 1.5z"/><path fill-rule="evenodd" clip-rule="evenodd" d="M14.5 3c-.278 0-.5.222-.5.5v5c0 .278.222.5.5.5s.5-.222.5-.5v-5c0-.278-.222-.5-.5-.5zm-2.5.5C12 2.118 13.118 1 14.5 1S17 2.118 17 3.5v5c0 1.382-1.118 2.5-2.5 2.5A2.498 2.498 0 0112 8.5v-5z"/><path d="M20.5 10H19V8.5c0-.83.67-1.5 1.5-1.5s1.5.67 1.5 1.5-.67 1.5-1.5 1.5z"/><path fill-rule="evenodd" clip-rule="evenodd" d="M20.5 8c-.278 0-.5.222-.5.5V9h.5c.278 0 .5-.222.5-.5s-.222-.5-.5-.5zm-2.5.5C18 7.118 19.118 6 20.5 6S23 7.118 23 8.5 21.882 11 20.5 11H19a1 1 0 01-1-1V8.5z"/><path d="M9.5 14c.83 0 1.5.67 1.5 1.5v5c0 .83-.67 1.5-1.5 1.5S8 21.33 8 20.5v-5c0-.83.67-1.5 1.5-1.5z"/><path fill-rule="evenodd" clip-rule="evenodd" d="M9.5 15c-.278 0-.5.222-.5.5v5c0 .278.222.5.5.5s.5-.222.5-.5v-5c0-.278-.222-.5-.5-.5zm-2.5.5C7 14.118 8.118 13 9.5 13s2.5 1.118 2.5 2.5v5c0 1.382-1.118 2.5-2.5 2.5A2.498 2.498 0 017 20.5v-5z"/><path d="M3.5 14H5v1.5c0 .83-.67 1.5-1.5 1.5S2 16.33 2 15.5 2.67 14 3.5 14z"/><path fill-rule="evenodd" clip-rule="evenodd" d="M3.5 15c-.278 0-.5.222-.5.5s.222.5.5.5.5-.222.5-.5V15h-.5zm-2.5.5C1 14.118 2.118 13 3.5 13H5a1 1 0 011 1v1.5C6 16.882 4.882 18 3.5 18A2.498 2.498 0 011 15.5z"/><path d="M14 14.5c0-.83.67-1.5 1.5-1.5h5c.83 0 1.5.67 1.5 1.5s-.67 1.5-1.5 1.5h-5c-.83 0-1.5-.67-1.5-1.5z"/><path fill-rule="evenodd" clip-rule="evenodd" d="M15.5 14c-.278 0-.5.222-.5.5s.222.5.5.5h5c.278 0 .5-.222.5-.5s-.222-.5-.5-.5h-5zm-2.5.5c0-1.382 1.118-2.5 2.5-2.5h5c1.382 0 2.5 1.118 2.5 2.5S21.882 17 20.5 17h-5a2.498 2.498 0 01-2.5-2.5z"/><path d="M15.5 19H14v1.5c0 .83.67 1.5 1.5 1.5s1.5-.67 1.5-1.5-.67-1.5-1.5-1.5z"/><path fill-rule="evenodd" clip-rule="evenodd" d="M13 19a1 1 0 011-1h1.5c1.382 0 2.5 1.118 2.5 2.5S16.882 23 15.5 23a2.498 2.498 0 01-2.5-2.5V19zm2 1v.5c0 .278.222.5.5.5s.5-.222.5-.5-.222-.5-.5-.5H15z"/><path d="M10 9.5C10 8.67 9.33 8 8.5 8h-5C2.67 8 2 8.67 2 9.5S2.67 11 3.5 11h5c.83 0 1.5-.67 1.5-1.5z"/><path fill-rule="evenodd" clip-rule="evenodd" d="M1 9.5C1 8.118 2.118 7 3.5 7h5C9.882 7 11 8.118 11 9.5S9.882 12 8.5 12h-5A2.498 2.498 0 011 9.5zM3.5 9c-.278 0-.5.222-.5.5s.222.5.5.5h5c.278 0 .5-.222.5-.5S8.778 9 8.5 9h-5z"/><path d="M8.5 5H10V3.5C10 2.67 9.33 2 8.5 2S7 2.67 7 3.5 7.67 5 8.5 5z"/><path fill-rule="evenodd" clip-rule="evenodd" d="M6 3.5C6 2.118 7.118 1 8.5 1S11 2.118 11 3.5V5a1 1 0 01-1 1H8.5A2.498 2.498 0 016 3.5zM8.5 3c-.278 0-.5.222-.5.5s.222.5.5.5H9v-.5c0-.278-.222-.5-.5-.5z"/></g></svg>