<svg viewBox="0 0 24 24" fill="none" xmlns="http://www.w3.org/2000/svg"><g fill-rule="evenodd" clip-rule="evenodd" fill="#000"><path d="M4 13a1 1 0 011 1v7a1 1 0 11-2 0v-7a1 1 0 011-1zM4 2a1 1 0 011 1v7a1 1 0 11-2 0V3a1 1 0 011-1zM12 11a1 1 0 011 1v9a1 1 0 11-2 0v-9a1 1 0 011-1zM12 2a1 1 0 011 1v5a1 1 0 11-2 0V3a1 1 0 011-1zM20 15a1 1 0 011 1v5a1 1 0 11-2 0v-5a1 1 0 011-1zM20 2a1 1 0 011 1v9a1 1 0 11-2 0V3a1 1 0 011-1z"/><path d="M0 14a1 1 0 011-1h6a1 1 0 110 2H1a1 1 0 01-1-1zM8 8a1 1 0 011-1h6a1 1 0 110 2H9a1 1 0 01-1-1zM16 16a1 1 0 011-1h6a1 1 0 110 2h-6a1 1 0 01-1-1z"/></g></svg>