<svg viewBox="0 0 24 24" xmlns="http://www.w3.org/2000/svg"><g fill-rule="evenodd" clip-rule="evenodd" ><path d="M12 3a9 9 0 100 18 9 9 0 000-18zM1 12C1 5.925 5.925 1 12 1s11 4.925 11 11-4.925 11-11 11S1 18.075 1 12z"/><path d="M8.797 13.396A1 1 0 007.2 14.6L8 14l-.8.6.001.001.001.002.003.004.007.009.021.027.07.086a6.942 6.942 0 001.171 1.08c.798.58 2 1.191 3.526 1.191 1.525 0 2.728-.61 3.526-1.191a6.944 6.944 0 001.17-1.08c.03-.035.053-.064.07-.086l.022-.027.007-.01.003-.003.001-.002S16.8 14.6 16 14l.8.6a1 1 0 00-1.597-1.204l-.005.006a3.709 3.709 0 01-.194.219 4.953 4.953 0 01-.655.57c-.577.42-1.374.809-2.349.809-.975 0-1.772-.39-2.35-.809a4.952 4.952 0 01-.815-.748 1.965 1.965 0 01-.034-.041l-.004-.006zM8 9a1 1 0 011-1h.01a1 1 0 010 2H9a1 1 0 01-1-1zM14 9a1 1 0 011-1h.01a1 1 0 110 2H15a1 1 0 01-1-1z"/></g></svg>