<svg viewBox="0 0 24 24" xmlns="http://www.w3.org/2000/svg"><g fill-rule="evenodd" clip-rule="evenodd"><path d="M12 8a4 4 0 100 8 4 4 0 000-8zm-6 4a6 6 0 1112 0 6 6 0 01-12 0zM12 0a1 1 0 011 1v2a1 1 0 11-2 0V1a1 1 0 011-1zM12 20a1 1 0 011 1v2a1 1 0 11-2 0v-2a1 1 0 011-1zM3.513 3.513a1 1 0 011.414 0l1.42 1.42a1 1 0 01-1.414 1.414l-1.42-1.42a1 1 0 010-1.414zM17.653 17.653a1 1 0 011.414 0l1.42 1.42a1 1 0 01-1.414 1.414l-1.42-1.42a1 1 0 010-1.414zM0 12a1 1 0 011-1h2a1 1 0 110 2H1a1 1 0 01-1-1zM20 12a1 1 0 011-1h2a1 1 0 110 2h-2a1 1 0 01-1-1zM6.347 17.653a1 1 0 010 1.414l-1.42 1.42a1 1 0 01-1.414-1.414l1.42-1.42a1 1 0 011.414 0zM20.487 3.513a1 1 0 010 1.414l-1.42 1.42a1 1 0 11-1.414-1.414l1.42-1.42a1 1 0 011.414 0z"/></g></svg>