<svg viewBox="0 0 24 24" xmlns="http://www.w3.org/2000/svg"><g fill-rule="evenodd" clip-rule="evenodd" ><path d="M7.757 13.757A6 6 0 0118 18a1 1 0 11-2 0 4 4 0 10-8 0 1 1 0 11-2 0 6 6 0 011.757-4.243zM12 1a1 1 0 011 1v7a1 1 0 11-2 0V2a1 1 0 011-1zM3.513 9.513a1 1 0 011.414 0l1.42 1.42a1 1 0 11-1.414 1.414l-1.42-1.42a1 1 0 010-1.414zM0 18a1 1 0 011-1h2a1 1 0 110 2H1a1 1 0 01-1-1zM20 18a1 1 0 011-1h2a1 1 0 110 2h-2a1 1 0 01-1-1zM20.487 9.513a1 1 0 010 1.414l-1.42 1.42a1 1 0 01-1.414-1.414l1.42-1.42a1 1 0 011.414 0zM0 22a1 1 0 011-1h22a1 1 0 110 2H1a1 1 0 01-1-1z"/><path d="M11.293 1.293a1 1 0 011.414 0l4 4a1 1 0 01-1.414 1.414L12 3.414 8.707 6.707a1 1 0 01-1.414-1.414l4-4z"/></g></svg>