<svg viewBox="0 0 24 24" xmlns="http://www.w3.org/2000/svg"><g fill-rule="evenodd" clip-rule="evenodd"><path d="M0 3a1 1 0 011-1h15a1 1 0 011 1v13a1 1 0 01-1 1H1a1 1 0 01-1-1V3zm2 1v11h13V4H2z"/><path d="M15 8a1 1 0 011-1h4a1 1 0 01.707.293l3 3A1 1 0 0124 11v5a1 1 0 01-1 1h-7a1 1 0 01-1-1V8zm2 1v6h5v-3.586L19.586 9H17zM5.5 17a1.5 1.5 0 100 3 1.5 1.5 0 000-3zM2 18.5a3.5 3.5 0 117 0 3.5 3.5 0 01-7 0z"/><path d="M18.5 17a1.5 1.5 0 100 3 1.5 1.5 0 000-3zM15 18.5a3.5 3.5 0 117 0 3.5 3.5 0 01-7 0z"/></g></svg>