<svg aria-label="twitter" role="img" viewBox="0 0 24 24" xmlns="http://www.w3.org/2000/svg"><g><path d="M23 3a10.9 10.9 0 01-3.14 1.53 4.48 4.48 0 00-7.86 3v1A10.66 10.66 0 013 4s-4 9 5 13a11.64 11.64 0 01-7 2c9 5 20 0 20-11.5 0-.279-.028-.556-.08-.83A7.72 7.72 0 0023 3z"/><path fill-rule="evenodd" clip-rule="evenodd" d="M14.704 2.817a4.98 4.98 0 015.306 1.14 10.4 10.4 0 002.702-1.366.5.5 0 01.774.527 8.22 8.22 0 01-2.032 3.722c.03.218.045.438.046.658V7.5c0 5.925-2.843 10.225-6.89 12.379-4.034 2.147-9.215 2.135-13.853-.442a.5.5 0 01.263-.937 11.14 11.14 0 005.945-1.445C5.098 16.078 3.831 14.861 3 13.55c-.947-1.496-1.308-3.085-1.373-4.526-.066-1.44.163-2.741.406-3.68a12.582 12.582 0 01.462-1.429 5.4 5.4 0 01.035-.084l.01-.023.003-.007v-.002c.001 0 .001-.001.458.202l-.457-.203a.5.5 0 01.866-.084A10.16 10.16 0 0011.5 8.03v-.498a4.98 4.98 0 013.204-4.716zM3.16 5.03a12.21 12.21 0 00-.16.564c-.226.874-.435 2.072-.376 3.383.06 1.309.386 2.72 1.22 4.037.832 1.314 2.189 2.565 4.36 3.53a.5.5 0 01.077.87 12.141 12.141 0 01-5.26 1.995c3.859 1.538 7.903 1.3 11.12-.413 3.702-1.97 6.359-5.92 6.359-11.495a4 4 0 00-.071-.737.5.5 0 01.14-.45 7.22 7.22 0 001.506-2.158 11.4 11.4 0 01-2.07.853.5.5 0 01-.522-.15A3.98 3.98 0 0012.5 7.522V8.53a.5.5 0 01-.487.5 11.16 11.16 0 01-8.853-4z"/></g></svg>