<svg viewBox="0 0 24 24" xmlns="http://www.w3.org/2000/svg"><g clip-path="url(#clip0)" fill-rule="evenodd" clip-rule="evenodd" ><path d="M3 6a1 1 0 00-1 1v10a1 1 0 001 1h11a1 1 0 001-1v-.586L4.586 6H3zM.879 4.879A3 3 0 013 4h2a1 1 0 01.707.293l11 11A1 1 0 0117 16v1a3 3 0 01-3 3H3a3 3 0 01-3-3V7a3 3 0 01.879-2.121zM14 6h-3.34a1 1 0 110-2H14a3 3 0 013 3v2.926l.105.104 5.309-3.84A1 1 0 0124 7v10a1 1 0 11-2 0V8.958l-4.414 3.192a1 1 0 01-1.293-.103l-1-1A1 1 0 0115 10.34V7a1 1 0 00-1-1z"/><path d="M.293.293a1 1 0 011.414 0l22 22a1 1 0 01-1.414 1.414l-22-22a1 1 0 010-1.414z"/></g><defs><clipPath id="clip0"><path d="M0 0h24v24H0V0z" /></clipPath></defs></svg>