<svg viewBox="0 0 24 24" fill="none" xmlns="http://www.w3.org/2000/svg"><g fill-rule="evenodd" clip-rule="evenodd" fill="#000"><path d="M11.433 4.099A1 1 0 0112 5v14a1 1 0 01-1.625.78L5.65 16H2a1 1 0 01-1-1V9a1 1 0 011-1h3.65l4.725-3.78a1 1 0 011.058-.121zM10 7.08l-3.375 2.7A1 1 0 016 10H3v4h3a1 1 0 01.625.22L10 16.92V7.08zM23.707 8.293a1 1 0 010 1.414l-6 6a1 1 0 01-1.414-1.414l6-6a1 1 0 011.414 0z"/><path d="M16.293 8.293a1 1 0 011.414 0l6 6a1 1 0 01-1.414 1.414l-6-6a1 1 0 010-1.414z"/></g></svg>