<svg viewBox="0 0 24 24" fill="none" xmlns="http://www.w3.org/2000/svg"><g fill-rule="evenodd" clip-rule="evenodd" fill="#000"><path d="M12 6a6 6 0 100 12 6 6 0 000-12zm-8 6a8 8 0 1116 0 8 8 0 01-16 0z"/><path d="M12 8a1 1 0 011 1v2.586l1.207 1.207a1 1 0 01-1.414 1.414l-1.5-1.5A1 1 0 0111 12V9a1 1 0 011-1zM14.861 2.26a1 1 0 00-.677-.26H9.83a1 1 0 00-.994.91l-.35 3.831a1 1 0 11-1.992-.182l.35-3.829A3.001 3.001 0 019.83 0h4.35m.682 2.26a1 1 0 01.323.65l-.323-.65zm2.315.47v-.001.001zm0 0l.35 3.829a1 1 0 01-1.992.182l-.35-3.831M7.39 16.354a1 1 0 011.087.905l.35 3.831a1 1 0 001 .91H14.164a1 1 0 001-.91l.35-3.831a1 1 0 011.992.182l-.35 3.829v.001m-9.767-4.917a1 1 0 00-.905 1.087l.905-1.087zm-.905 1.087l.35 3.829-.35-3.829zm.35 3.829zM9.832 24H9.83v-1l.004 1h-.002zm0 0h4.326-4.326z"/></g></svg>