<svg viewBox="0 0 24 24" xmlns="http://www.w3.org/2000/svg"><g fill-rule="evenodd" clip-rule="evenodd"><path d="M12.04 11.002a10 10 0 00-6.4 2.316 1 1 0 01-1.28-1.536 12 12 0 0115.36 0 1 1 0 01-1.28 1.536 10 10 0 00-6.4-2.316z"/><path d="M12 6.003A15 15 0 002.081 9.75 1 1 0 01.76 8.25a17 17 0 0122.482 0 1 1 0 11-1.322 1.5A15 15 0 0012 6.003zM12.005 16.001a5 5 0 00-2.896.924 1 1 0 11-1.158-1.63 7 7 0 018.108 0 1 1 0 01-1.158 1.63 5 5 0 00-2.896-.924zM11 20a1 1 0 011-1h.01a1 1 0 110 2H12a1 1 0 01-1-1z"/></g></svg>