<svg aria-label="wrench" role="img" viewBox="0 0 24 24" xmlns="http://www.w3.org/2000/svg"><path fill-rule="evenodd" clip-rule="evenodd" d="M9.503 5.298c.182.182.27.436.239.691l-.325 2.687a.835.835 0 01-.726.729l-2.699.337a.835.835 0 01-.694-.239L3.685 7.89a4.593 4.593 0 006.67 4.464.835.835 0 01.97.153l7.58 7.578a.835.835 0 101.18-1.18l-7.579-7.58a.835.835 0 01-.152-.97 4.593 4.593 0 00-4.464-6.67l1.613 1.613zm-1.468.894l-2.38-2.38a.835.835 0 01.28-1.365 6.263 6.263 0 018.159 8.105l7.172 7.171a2.505 2.505 0 11-3.543 3.543l-7.171-7.171a6.263 6.263 0 01-8.105-8.159.835.835 0 011.366-.28L6.19 8.034l1.646-.206.198-1.636z"/></svg>