<svg viewBox="0 0 24 24" xmlns="http://www.w3.org/2000/svg"><g clip-path="url(#clip0)" fill-rule="evenodd" clip-rule="evenodd"><path d="M13.398 1.082a1 1 0 01.594 1.041l-.59 4.75a1 1 0 01-1.984-.246l.17-1.366-.25.299a1 1 0 01-1.537-1.28l2.43-2.92a1 1 0 011.167-.278zM14.66 10a1 1 0 011-1H21a1 1 0 01.768 1.641l-2.43 2.91a1 1 0 01-1.536-1.282L18.862 11H15.66a1 1 0 01-1-1zM8.64 7.232a1 1 0 01.128 1.408L5.135 13H12a1 1 0 01.992 1.124l-.577 4.616 2.817-3.38a1 1 0 011.536 1.28l-5 6a1 1 0 01-1.76-.764l.86-6.876H3a1 1 0 01-.768-1.64l5-6a1 1 0 011.408-.128z"/><path d="M.293.293a1 1 0 011.414 0l22 22a1 1 0 01-1.414 1.414l-22-22a1 1 0 010-1.414z"/></g><defs><clipPath id="clip0"><path d="M0 0h24v24H0V0z"/></clipPath></defs></svg>